<svg width="34" height="31" viewBox="0 0 34 31" fill="none" xmlns="http://www.w3.org/2000/svg">
    <g filter="url(#filter0_d_67706_1811)">
        <path fill-rule="evenodd" clip-rule="evenodd" d="M6.875 12C6.875 11.3787 7.37868 10.875 8 10.875L23.284 10.875L19.2045 6.7955C18.7652 6.35616 18.7652 5.64385 19.2045 5.20451C19.6438 4.76517 20.3562 4.76517 20.7955 5.20451L26.7955 11.2045C27.2348 11.6438 27.2348 12.3562 26.7955 12.7955L20.7955 18.7955C20.3562 19.2348 19.6438 19.2348 19.2045 18.7955C18.7652 18.3562 18.7652 17.6438 19.2045 17.2045L23.284 13.125L8 13.125C7.37868 13.125 6.875 12.6213 6.875 12Z" fill="white" stroke="black" stroke-opacity="0.3" stroke-width="0.611111" stroke-linecap="round" stroke-linejoin="round"/>
    </g>
    <defs>
        <filter id="filter0_d_67706_1811" x="-1" y="-1" width="36" height="36" filterUnits="userSpaceOnUse" color-interpolation-filters="sRGB">
            <feFlood flood-opacity="0" result="BackgroundImageFix"/>
            <feColorMatrix in="SourceAlpha" type="matrix" values="0 0 0 0 0 0 0 0 0 0 0 0 0 0 0 0 0 0 127 0" result="hardAlpha"/>
            <feOffset dy="5"/>
            <feGaussianBlur stdDeviation="3"/>
            <feColorMatrix type="matrix" values="0 0 0 0 0 0 0 0 0 0 0 0 0 0 0 0 0 0 0.05 0"/>
            <feBlend mode="normal" in2="BackgroundImageFix" result="effect1_dropShadow_67706_1811"/>
            <feBlend mode="normal" in="SourceGraphic" in2="effect1_dropShadow_67706_1811" result="shape"/>
        </filter>
    </defs>
</svg>
